<svg xmlns="http://www.w3.org/2000/svg" viewBox="0 0 50.02 50"><defs><style>.cls-1{fill:#fff;}</style></defs><g id="Layer_2" data-name="Layer 2"><g id="Layer_1-2" data-name="Layer 1"><path class="cls-1" d="M0,25A25,25,0,1,1,25,50,25,25,0,0,1,0,25Zm2.83,0A22.18,22.18,0,1,0,25,2.83,22.2,22.2,0,0,0,2.83,25Z"/><path class="cls-1" d="M16.68,24,27.35,13.43a1.42,1.42,0,0,1,2,0,1.35,1.35,0,0,1,.41,1,1.37,1.37,0,0,1-.41,1L19.67,25l9.67,9.59a1.37,1.37,0,0,1,.41,1,1.35,1.35,0,0,1-.41,1,1.41,1.41,0,0,1-2,0L16.68,26a1.4,1.4,0,0,1-.42-1A1.38,1.38,0,0,1,16.68,24Z"/></g></g></svg>