<svg xmlns="http://www.w3.org/2000/svg" viewBox="0 0 50.02 50"><defs><style>.cls-1{fill:#fff;}</style></defs><g id="Layer_2" data-name="Layer 2"><g id="Layer_1-2" data-name="Layer 1"><path class="cls-1" d="M25,50A25,25,0,1,1,50,25,25,25,0,0,1,25,50ZM25,2.83A22.17,22.17,0,1,0,47.19,25,22.2,22.2,0,0,0,25,2.83Z"/><path class="cls-1" d="M16.84,26.33a2.33,2.33,0,0,0-2-2.28v0a2.24,2.24,0,0,0,1.72-2.18c0-1.29-1.11-2.34-3.12-2.34a6.7,6.7,0,0,0-2.24.39.79.79,0,0,0-.48.95l0,.08a.8.8,0,0,0,1,.54,3.65,3.65,0,0,1,1.2-.23c.93,0,1.39.42,1.39,1,0,.79-.94,1.06-1.68,1.08h-.06a.79.79,0,1,0,0,1.57h.11c1,0,1.89.42,1.89,1.35,0,.71-.58,1.25-1.72,1.25a4.48,4.48,0,0,1-1.41-.25.79.79,0,0,0-1,.54l0,.15a.8.8,0,0,0,.49.95,6.44,6.44,0,0,0,2.13.35C15.38,29.21,16.84,28,16.84,26.33Z"/><path class="cls-1" d="M32.78,18.35a1.08,1.08,0,1,0,1.08,1.08A1.07,1.07,0,0,0,32.78,18.35Zm0,1.55a.48.48,0,1,1,.48-.47A.48.48,0,0,1,32.78,19.9Z"/><path class="cls-1" d="M21.14,29.21a3.36,3.36,0,0,0,3.46-3.4,2.85,2.85,0,0,0-2.9-3.06,2.62,2.62,0,0,0-2,.75h-.05c.25-1.1,1.11-2.09,3.06-2.25h.11a.82.82,0,0,0,.75-.81v-.08a.82.82,0,0,0-.87-.81h0a5.68,5.68,0,0,0-3.63,1.39,5.62,5.62,0,0,0-1.66,4.17C17.41,27.34,18.64,29.21,21.14,29.21Zm-1.46-4.06a1.41,1.41,0,0,1,1.3-.84,1.43,1.43,0,0,1,1.4,1.62c0,.95-.49,1.66-1.27,1.66-1,0-1.48-.9-1.52-1.89A1.21,1.21,0,0,1,19.68,25.15Z"/><path class="cls-1" d="M32.22,24.31c0-2.57-1-4.81-3.5-4.81s-3.58,2.15-3.58,4.87,1.08,4.84,3.51,4.84S32.22,27.21,32.22,24.31Zm-4.94.06c0-1.81.57-2.66,1.41-2.66s1.4.91,1.4,2.63S29.6,27,28.71,27,27.27,26.15,27.28,24.37Z"/><path class="cls-1" d="M32.68,29.65l-4.84.94a.32.32,0,0,0-.16.54l1.18,1.19c-4.75,4-10.1,5.44-12.33,3.21-1.09-1.09-1.3-2.92-.76-5.06,0,0,0-.06,0,0a4.82,4.82,0,0,1-2.16.16s0,0,0,0c-.5,2.62,0,4.93,1.47,6.45,3.14,3.14,9.63,1.69,15.41-3.21L31.59,35a.33.33,0,0,0,.55-.17L33.06,30A.32.32,0,0,0,32.68,29.65Z"/><path class="cls-1" d="M37,15.11C33.88,12,27.62,13.35,22,18A0,0,0,0,0,22,18a3.31,3.31,0,0,1,2.51.73s0,0,0,0c4.36-3.11,8.89-4.12,10.9-2.11s1.12,6.16-1.76,10.42a1.13,1.13,0,0,0,.08,1.41,1.09,1.09,0,0,0,1.68-.14C39,23,39.65,17.82,37,15.11Z"/></g></g></svg>