<svg xmlns="http://www.w3.org/2000/svg" viewBox="0 0 51.82 45"><defs><style>.cls-1{fill:#067881;}</style></defs><g id="Layer_2" data-name="Layer 2"><g id="Layer_1-2" data-name="Layer 1"><path class="cls-1" d="M9,12.76,7,10.45l8-7.18L17,5.59Z"/><path class="cls-1" d="M11.47,9.7l2.31-2.08L39,35.72,36.72,37.8Z"/><path class="cls-1" d="M8.62,12.26l1.72-1.54,25.24,28.1-1.72,1.55Z"/><path class="cls-1" d="M14.82,6.68l1.72-1.55,25.25,28.1-1.72,1.55Z"/><path class="cls-1" d="M13.44,1.9a5.4,5.4,0,0,0-7.62-.6A5.41,5.41,0,0,0,5.61,9l.17.17,7.81-7Z"/><path class="cls-1" d="M44.37,43.1l-1.66-9.41a.49.49,0,0,0-1,.17l.8,4.55-3.4,3.06-4.5-1.15a.48.48,0,0,0-.59.35.49.49,0,0,0,.11.45.42.42,0,0,0,.24.14l9.36,2.4a.47.47,0,0,0,.45-.12A.48.48,0,0,0,44.37,43.1Z"/><path class="cls-1" d="M20.65,31.42l-2.27-2.84-.64.5L20,31.93l-4.18,3.34-2.27-2.84-.63.51,2.26,2.84L11,39.13,8.74,36.28l-.63.51,2.26,2.84-3.77,3L2.34,37.32,17.61,25.1,16.3,23.66.37,36.4a1,1,0,0,0-.16,1.37l5.48,6.86a1,1,0,0,0,1.36.16L23.53,31.61l-1.32-1.44Z"/><path class="cls-1" d="M51.61,7.9,46.14,1.05A1,1,0,0,0,44.77.89L27.49,14.71l1.31,1.45L45.22,3l4.26,5.34-4.74,3.78L42.48,9.3l-.64.51,2.27,2.84L39.92,16l-2.26-2.84-.64.51,2.27,2.84-4.18,3.34L32.84,17l-.64.51,2.27,2.84-1.11.89,1.31,1.45L51.45,9.28A1,1,0,0,0,51.61,7.9Z"/></g></g></svg>