<svg xmlns="http://www.w3.org/2000/svg" viewBox="0 0 44.56 45"><defs><style>.cls-1{fill:#067881;}</style></defs><g id="Layer_2" data-name="Layer 2"><g id="Layer_1-2" data-name="Layer 1"><path class="cls-1" d="M40.82,7a7,7,0,1,1-14,0c0-.14,0-.28,0-.42a15.46,15.46,0,0,0-2.05-.15,15.89,15.89,0,0,0-13.19,7.06A10.07,10.07,0,0,0,7.81,12.4,19.58,19.58,0,0,1,28.18,2.91,7,7,0,0,1,40.82,7Zm-16.1,35.2a10.1,10.1,0,0,1-.92-3.89,15.93,15.93,0,0,1-13.61-9.71,7,7,0,1,0-3.81.75A19.72,19.72,0,0,0,24.72,42.22Zm19.84-19.8a19.81,19.81,0,0,0-2.5-9.63,10.2,10.2,0,0,1-2.91,2.76A15.83,15.83,0,0,1,37.48,32,6.9,6.9,0,0,0,33.82,31a7,7,0,1,0,7,7,6.93,6.93,0,0,0-.74-3.08A19.69,19.69,0,0,0,44.56,22.42Z"/></g></g></svg>