<svg xmlns="http://www.w3.org/2000/svg" viewBox="0 0 50 50"><defs><style>.cls-1{fill:#fff;}</style></defs><g id="Layer_2" data-name="Layer 2"><g id="Layer_1-2" data-name="Layer 1"><path class="cls-1" d="M25,50A25,25,0,1,1,50,25,25,25,0,0,1,25,50ZM25,2.83A22.17,22.17,0,1,0,47.17,25,22.2,22.2,0,0,0,25,2.83Z"/><path class="cls-1" d="M15.92,20.93,16,21a2.44,2.44,0,0,1,.85,1.63l.28,2.66a.65.65,0,0,0,.64.58H33a.64.64,0,0,0,.64-.58l.28-2.66A2.45,2.45,0,0,1,34.74,21l0,0a1.55,1.55,0,0,0,.51-1.58,7.1,7.1,0,0,0-6.24-5.79H21.66a7.1,7.1,0,0,0-6.24,5.79A1.57,1.57,0,0,0,15.92,20.93Z"/><path class="cls-1" d="M17.77,38.46h.61l1.77-3.25H18.38Z"/><path class="cls-1" d="M38.52,23.26c-.22-1.79-.83-2.13-2.38-2.12s-1.6,1.9-1.6,1.9S34,28.59,33.87,30s-1.82,1.25-1.82,1.25H18.66S17,31.35,16.83,30,16.17,23,16.17,23s-.06-1.89-1.61-1.9-2.15.33-2.37,2.12a19.57,19.57,0,0,0,2.14,10,2.85,2.85,0,0,0,2.49,1.48H33.88a2.87,2.87,0,0,0,2.5-1.48A19.67,19.67,0,0,0,38.52,23.26Z"/><path class="cls-1" d="M17.93,26.72a.65.65,0,0,0-.64.76l.26,1.66a1.66,1.66,0,0,0,1.64,1.41H31.52a1.67,1.67,0,0,0,1.64-1.41l.26-1.66a.66.66,0,0,0-.65-.76Z"/><path class="cls-1" d="M30.56,35.21l1.77,3.25h.6l-.6-3.25Z"/></g></g></svg>