<svg xmlns="http://www.w3.org/2000/svg" viewBox="0 0 50 48.74"><g id="Layer_2" data-name="Layer 2"><g id="Layer_1-2" data-name="Layer 1"><path d="M49,48.74H1A.87.87,0,0,1,.13,48c0-.3-1.07-7.47,3.57-10.77A16.77,16.77,0,0,1,10,34.91c3.15-.7,6.13-1.36,8.35-4.31,0,0,.91-1.38-1.86-4.77C12,20.37,13,11.75,13.45,9.24,14.33,4,19.29,0,25,0S35.67,4,36.55,9.24c.41,2.51,1.43,11.13-3,16.59-2.77,3.39-1.89,4.74-1.88,4.75,2.24,3,5.22,3.63,8.37,4.33a16.77,16.77,0,0,1,6.29,2.31c4.64,3.3,3.62,10.47,3.57,10.77A.87.87,0,0,1,49,48.74Z"/></g></g></svg>