<svg xmlns="http://www.w3.org/2000/svg" viewBox="0 0 39.68 50"><defs><style>.cls-1{fill:#067881;}</style></defs><g id="Layer_2" data-name="Layer 2"><g id="Layer_1-2" data-name="Layer 1"><path class="cls-1" d="M28.6,0V9.84a1.23,1.23,0,0,0,1.23,1.23h9.85Z"/><path class="cls-1" d="M13.1,20.29h-.72v3.5h.82a2,2,0,0,0,1.36-.44,1.72,1.72,0,0,0,.47-1.3,1.74,1.74,0,0,0-.47-1.3A2,2,0,0,0,13.1,20.29Z"/><path class="cls-1" d="M8.39,20.48a1.68,1.68,0,0,0-.94-.21H6.72v1.94h.86A1.18,1.18,0,0,0,8.46,22a1.13,1.13,0,0,0,.23-.76A.81.81,0,0,0,8.39,20.48Z"/><path class="cls-1" d="M24.67,16.51H2.24A2.24,2.24,0,0,0,0,18.76v6.58a2.24,2.24,0,0,0,2.24,2.24H24.67a2.24,2.24,0,0,0,2.24-2.24V18.76A2.24,2.24,0,0,0,24.67,16.51ZM9.39,22.83a3.05,3.05,0,0,1-1.91.49H6.72v1.61H5.43V19.17h2a3,3,0,0,1,1.93.51A2,2,0,0,1,10,21.27,1.89,1.89,0,0,1,9.39,22.83Zm6.13,1.32a3.38,3.38,0,0,1-2.45.78h-2V19.17h2a3.39,3.39,0,0,1,2.36.75,2.7,2.7,0,0,1,.83,2.1A2.85,2.85,0,0,1,15.52,24.15Zm6-3.85H18.81v1.24h2.54v1.13H18.81v2.26H17.52V19.17h4Z"/><path class="cls-1" d="M30.09,42H26.91V33.54A.51.51,0,0,0,26.4,33H20a.51.51,0,0,0-.51.51V42H16.26a.52.52,0,0,0-.37.87l6.92,7a.52.52,0,0,0,.73,0l6.92-7A.51.51,0,0,0,30.09,42Z"/><path class="cls-1" d="M28.6,12.75a1.69,1.69,0,0,1-1.69-1.68V0H9A2.24,2.24,0,0,0,6.73,2.24V14.83H24.67a3.94,3.94,0,0,1,3.93,3.93v6.58a3.93,3.93,0,0,1-3.93,3.92H6.73V38A2.24,2.24,0,0,0,9,40.27h8.79V33.54A2.19,2.19,0,0,1,20,31.35H26.4a2.2,2.2,0,0,1,2.2,2.19v6.73h8.83A2.24,2.24,0,0,0,39.68,38V12.75Z"/></g></g></svg>