<svg xmlns="http://www.w3.org/2000/svg" viewBox="0 0 50.02 50"><defs><style>.cls-1{fill:#fff;}</style></defs><g id="Layer_2" data-name="Layer 2"><g id="Layer_1-2" data-name="Layer 1"><path class="cls-1" d="M25,50A25,25,0,1,1,50,25,25,25,0,0,1,25,50ZM25,2.83A22.17,22.17,0,1,0,47.19,25,22.2,22.2,0,0,0,25,2.83Z"/><path class="cls-1" d="M33.34,24,22.67,13.43a1.42,1.42,0,0,0-2,0,1.36,1.36,0,0,0-.42,1,1.38,1.38,0,0,0,.42,1L30.35,25l-9.67,9.59a1.38,1.38,0,0,0-.42,1,1.36,1.36,0,0,0,.42,1,1.41,1.41,0,0,0,2,0L33.34,26a1.35,1.35,0,0,0,.41-1A1.37,1.37,0,0,0,33.34,24Z"/></g></g></svg>