<svg width="51" height="50" viewBox="0 0 51 50" fill="none" xmlns="http://www.w3.org/2000/svg">
<g clip-path="url(#clip0)">
<path d="M25 50C20.0555 50 15.222 48.5338 11.1108 45.7867C6.99953 43.0397 3.79521 39.1352 1.90302 34.5671C0.0108321 29.9989 -0.484251 24.9723 0.480379 20.1227C1.44501 15.2732 3.82603 10.8186 7.32234 7.32233C10.8187 3.82601 15.2732 1.44499 20.1228 0.480364C24.9723 -0.484267 29.9989 0.0108168 34.5671 1.90301C39.1352 3.7952 43.0397 6.99951 45.7868 11.1107C48.5338 15.222 50 20.0555 50 25C50 31.6304 47.3661 37.9893 42.6777 42.6777C37.9893 47.3661 31.6304 50 25 50ZM25 2.83C20.6161 2.83395 16.3317 4.13756 12.6885 6.57603C9.04527 9.01451 6.2068 12.4784 4.53187 16.5298C2.85694 20.5811 2.42075 25.0382 3.27844 29.3374C4.13613 33.6366 6.2492 37.5851 9.35052 40.6836C12.4518 43.7821 16.4022 45.8916 20.7022 46.7455C25.0022 47.5993 29.4588 47.1591 33.5087 45.4805C37.5586 43.8019 41.0199 40.9603 43.4551 37.3149C45.8903 33.6695 47.19 29.384 47.19 25C47.1821 19.1191 44.841 13.4817 40.6807 9.32515C36.5204 5.16861 30.8809 2.83264 25 2.83V2.83Z" fill="white"/>
<path fill-rule="evenodd" clip-rule="evenodd" d="M38 15C38 17.7614 35.7614 20 33 20C30.2962 20 28.0937 17.8539 28.0029 15.1722C27.3551 15.0592 26.6859 15 25.9999 15C22.372 15 19.2122 16.6557 17.2215 19.176C16.4346 18.5124 15.44 18.0873 14.3491 18.012C16.8594 14.3873 21.1406 12 25.9999 12C26.9621 12 27.9016 12.0936 28.8092 12.2719C29.7014 10.9041 31.2451 10 33 10C35.7614 10 38 12.2386 38 15ZM38.1503 18.7891C37.5759 19.6421 36.7455 20.3085 35.7692 20.6779C36.5576 22.1308 36.9999 23.7744 36.9999 25.5C36.9999 27.8574 36.1744 30.0617 34.7688 31.836C33.9761 31.3078 33.024 31 32 31C29.2386 31 27 33.2386 27 36C27 38.7614 29.2386 41 32 41C34.7614 41 37 38.7614 37 36C37 35.3772 36.8861 34.781 36.6781 34.2311C38.75 31.8772 39.9999 28.8294 39.9999 25.5C39.9999 23.0572 39.3271 20.7659 38.1503 18.7891ZM15.8884 29.6311C17.7137 28.8861 19 27.0933 19 25C19 22.2386 16.7614 20 14 20C11.2386 20 9 22.2386 9 25C9 27.3258 10.588 29.2807 12.7389 29.8396C14.613 35.1665 19.842 38.9999 25.9995 39C25.3719 38.1643 24.9999 37.1256 24.9999 36L25.0001 35.9576C20.8487 35.6039 17.4329 33.0678 15.8884 29.6311Z" fill="white"/>
</g>
<defs>
<clipPath id="clip0">
<rect width="50.02" height="50" fill="white"/>
</clipPath>
</defs>
</svg>
